<?xml version="1.0" encoding="utf-8"?>
<!-- Generator: Adobe Illustrator 27.5.0, SVG Export Plug-In . SVG Version: 6.00 Build 0)  -->
<svg version="1.1" xmlns="http://www.w3.org/2000/svg" xmlns:xlink="http://www.w3.org/1999/xlink" x="0px" y="0px"
	 viewBox="0 0 1584 396" style="enable-background:new 0 0 1584 396;" xml:space="preserve">
<g id="BACKGROUND">
	<rect style="fill:#FFFFFF;" width="1584" height="396"/>
</g>
<g id="OBJECTS">
	<g>
		<defs>
			<rect id="SVGID_1_" width="1584" height="396"/>
		</defs>
		<clipPath id="SVGID_00000150810844289148349780000017614695861800093345_">
			<use xlink:href="#SVGID_1_"  style="overflow:visible;"/>
		</clipPath>
		<g style="clip-path:url(#SVGID_00000150810844289148349780000017614695861800093345_);">
			<path style="fill:#F7DE76;" d="M100.532-317.147l-391.93,372.182c-1.544,1.467-2.189,3.646-1.691,5.717l126.356,525.515
				c0.498,2.071,2.063,3.719,4.105,4.323l518.284,153.33c2.042,0.604,4.252,0.073,5.796-1.394l391.932-372.185
				c1.544-1.467,2.189-3.646,1.691-5.717L628.72-160.887c-0.498-2.071-2.063-3.719-4.105-4.323L106.329-318.54
				C104.286-319.145,102.077-318.613,100.532-317.147z"/>
			<path style="fill:#1E214E;" d="M120.496-327.491L-252.056,15.958c-1.566,1.444-2.243,3.613-1.775,5.691l111.16,494.365
				c0.467,2.078,2.008,3.749,4.041,4.383L345.08,671.312c2.033,0.634,4.25,0.136,5.816-1.308l372.553-343.45
				c1.566-1.444,2.243-3.613,1.775-5.691L614.066-173.5c-0.467-2.078-2.008-3.749-4.041-4.383L126.313-328.798
				C124.28-329.433,122.062-328.934,120.496-327.491z"/>
			<path style="fill:#FFFFFF;" d="M-150.478,551.913c-0.626-0.695-1.074-1.552-1.274-2.494L-257.223,53.6
				c-0.401-1.885,0.239-3.858,1.672-5.148l376.655-339.248l0.52,0.578l-0.52-0.578c1.432-1.29,3.461-1.721,5.294-1.126
				l482.127,156.568c1.833,0.595,3.221,2.136,3.622,4.022l105.471,495.815c0.401,1.886-0.24,3.859-1.672,5.149l-376.656,339.25
				c-1.432,1.29-3.461,1.721-5.294,1.126L-148.129,553.44C-149.046,553.142-149.852,552.608-150.478,551.913z M609.717-132.786
				c-0.446-0.496-1.02-0.876-1.674-1.088L125.917-290.443c-1.306-0.424-2.752-0.117-3.773,0.803L-254.511,49.607
				c-1.021,0.919-1.477,2.325-1.191,3.669l105.472,495.818c0.286,1.344,1.275,2.442,2.582,2.866l482.124,156.568
				c1.307,0.424,2.752,0.117,3.773-0.803l376.656-339.25c1.021-0.919,1.477-2.326,1.191-3.669L610.625-131.008
				C610.482-131.68,610.163-132.291,609.717-132.786z"/>
		</g>
		<g style="clip-path:url(#SVGID_00000150810844289148349780000017614695861800093345_);">
			<path style="fill:#FFFFFF;" d="M122.184,366.729l0.196,0.341L89.333,424.31l-0.197,0.341H63.827l33.245-57.582l-33.245-57.581
				h25.309L122.184,366.729z M98.448,366.729l0.196,0.341l-32.458,56.219H88.35l32.458-56.219L88.35,310.851H66.187L98.448,366.729z
				"/>
			<path style="fill:#FFFFFF;" d="M152.993,366.729l0.196,0.341l-33.048,57.241l-0.197,0.341H94.635l33.245-57.582l-33.245-57.581
				h25.309L152.993,366.729z M129.257,366.729l0.196,0.341l-32.458,56.219h22.163l32.458-56.219l-32.458-56.219H96.995
				L129.257,366.729z"/>
			<path style="fill:#FFFFFF;" d="M183.801,366.729l0.196,0.341L150.95,424.31l-0.197,0.341h-25.308l33.245-57.582l-33.245-57.581
				h25.308L183.801,366.729z M160.065,366.729l0.196,0.341l-32.457,56.219h22.162l32.458-56.219l-32.458-56.219h-22.162
				L160.065,366.729z"/>
			<path style="fill:#FFFFFF;" d="M214.61,366.729l0.196,0.341l-33.048,57.241l-0.197,0.341h-25.308l33.245-57.582l-33.245-57.581
				h25.308L214.61,366.729z M190.874,366.729l0.196,0.341l-32.457,56.219h22.162l32.458-56.219l-32.458-56.219h-22.162
				L190.874,366.729z"/>
		</g>
		<path style="clip-path:url(#SVGID_00000150810844289148349780000017614695861800093345_);fill:#F8C05A;" d="M1506.197,423.991
			l14.918-14.919c1.587-1.587,1.587-4.16,0-5.748l-12.043-12.043l12.043-12.043c1.587-1.587,1.587-4.16,0-5.748l-12.043-12.043
			l12.043-12.043c1.588-1.587,1.587-4.161,0-5.748l-12.043-12.043l12.043-12.043c1.587-1.587,1.587-4.161,0-5.748l-12.043-12.043
			l12.043-12.043c1.588-1.587,1.587-4.161,0-5.748l-12.043-12.043l12.043-12.043c1.587-1.587,1.587-4.16,0-5.748l-12.043-12.043
			l12.043-12.043c1.587-1.587,1.587-4.161,0-5.748l-12.043-12.043l12.043-12.043c1.587-1.587,1.587-4.161,0-5.748l-14.919-14.919
			c-1.587-1.587-4.161-1.587-5.748,0c-1.587,1.587-1.587,4.161,0,5.748l12.045,12.045l-12.012,12.012
			c-0.011,0.01-0.023,0.019-0.033,0.03c-0.893,0.893-1.284,2.098-1.172,3.264c0.086,0.908,0.477,1.792,1.172,2.487
			c0.009,0.009,0.02,0.017,0.029,0.026l12.015,12.015l-12.015,12.015c-0.009,0.009-0.02,0.017-0.029,0.026
			c-0.695,0.695-1.086,1.579-1.172,2.487c-0.112,1.166,0.279,2.371,1.172,3.264c0.011,0.011,0.023,0.02,0.033,0.03l12.011,12.011
			l-12.016,12.016c-0.009,0.009-0.02,0.017-0.029,0.026c-0.794,0.794-1.191,1.835-1.191,2.875c0,1.041,0.396,2.081,1.19,2.875
			c0.009,0.009,0.02,0.017,0.029,0.026l12.015,12.016l-12.011,12.011c-0.011,0.01-0.023,0.02-0.033,0.03
			c-0.794,0.794-1.191,1.835-1.19,2.875c0,1.041,0.396,2.082,1.19,2.875c0.011,0.011,0.022,0.02,0.033,0.03l12.011,12.011
			l-12.016,12.016c-0.01,0.009-0.02,0.017-0.029,0.026c-0.893,0.893-1.284,2.098-1.172,3.264c0.086,0.907,0.477,1.791,1.172,2.486
			c0.008,0.008,0.017,0.015,0.025,0.023l12.019,12.019l-12.015,12.015c-0.009,0.009-0.02,0.017-0.029,0.026
			c-0.695,0.695-1.086,1.579-1.172,2.487c-0.112,1.166,0.279,2.371,1.172,3.264c0.011,0.011,0.022,0.02,0.033,0.03l12.011,12.012
			l-12.011,12.011c-0.011,0.01-0.023,0.019-0.033,0.03c-0.794,0.794-1.191,1.835-1.19,2.876c0,1.041,0.396,2.082,1.19,2.875
			c0.011,0.011,0.023,0.02,0.033,0.03l12.011,12.011l-12.045,12.045c-1.587,1.587-1.587,4.161,0,5.748
			C1502.036,425.578,1504.609,425.578,1506.197,423.991z"/>
		<path style="clip-path:url(#SVGID_00000150810844289148349780000017614695861800093345_);fill:#F7DE76;" d="M1480.906,454.105
			l14.918-14.919c1.588-1.587,1.587-4.16,0-5.748l-12.043-12.043l12.043-12.043c1.587-1.587,1.587-4.16,0-5.748l-12.043-12.043
			l12.043-12.043c1.588-1.587,1.587-4.161,0-5.748l-12.043-12.043l12.043-12.044c1.587-1.587,1.587-4.161,0-5.748l-12.043-12.043
			l12.043-12.043c1.587-1.587,1.587-4.161,0-5.748l-12.043-12.043l12.043-12.043c1.587-1.587,1.587-4.16,0-5.748l-12.043-12.043
			l12.043-12.043c1.588-1.587,1.587-4.161,0-5.748l-12.043-12.043l12.043-12.043c1.587-1.587,1.587-4.161,0-5.748l-14.918-14.919
			c-1.587-1.587-4.161-1.587-5.748,0c-1.587,1.587-1.587,4.161,0,5.748l12.045,12.045l-12.012,12.011
			c-0.011,0.01-0.023,0.019-0.033,0.03c-0.893,0.893-1.284,2.098-1.172,3.264c0.086,0.908,0.477,1.792,1.172,2.487
			c0.009,0.009,0.02,0.017,0.029,0.026l12.015,12.015l-12.015,12.015c-0.01,0.009-0.02,0.017-0.029,0.026
			c-0.695,0.695-1.086,1.579-1.172,2.487c-0.112,1.166,0.279,2.371,1.172,3.264c0.011,0.011,0.022,0.02,0.033,0.03l12.012,12.011
			l-12.016,12.016c-0.01,0.009-0.02,0.017-0.029,0.026c-0.794,0.794-1.191,1.835-1.19,2.875c0,1.041,0.396,2.081,1.19,2.875
			c0.01,0.009,0.02,0.017,0.029,0.026l12.015,12.015l-12.011,12.011c-0.011,0.01-0.023,0.02-0.033,0.03
			c-0.794,0.794-1.191,1.835-1.19,2.875c0,1.041,0.396,2.082,1.19,2.876c0.011,0.011,0.023,0.02,0.033,0.03l12.011,12.011
			l-12.016,12.016c-0.01,0.009-0.02,0.017-0.029,0.026c-0.893,0.893-1.284,2.098-1.172,3.264c0.086,0.907,0.477,1.791,1.172,2.486
			c0.008,0.008,0.017,0.015,0.025,0.023l12.019,12.019l-12.015,12.015c-0.009,0.009-0.02,0.017-0.029,0.026
			c-0.695,0.695-1.086,1.579-1.172,2.487c-0.112,1.166,0.279,2.371,1.172,3.264c0.011,0.011,0.022,0.02,0.033,0.03l12.012,12.012
			l-12.012,12.011c-0.011,0.01-0.023,0.019-0.033,0.03c-0.794,0.794-1.191,1.835-1.19,2.876c-0.001,1.041,0.396,2.081,1.19,2.875
			c0.01,0.011,0.022,0.02,0.033,0.03l12.011,12.011l-12.045,12.045c-1.587,1.587-1.587,4.161,0,5.748
			C1476.745,455.692,1479.318,455.692,1480.906,454.105z"/>
	</g>
	<g>
		<g>
			<g>
				<path style="fill:#5CAAA0;" d="M610.513,102.941c0,0,9.02,8.488,3.894,23.38c-5.126,14.892-7.746,18.915-7.746,18.915
					l-39.297-16.214L610.513,102.941z"/>
				<path style="fill:#FFFFFF;" d="M610.776,103.119c0,0-17.086,8.166-46.603,67.285c-29.518,59.119-42.172,99.939-42.172,99.939
					l-129.1-47.278c0,0,55.059-141.481,94.785-172.387C487.686,50.678,547.271,59.321,610.776,103.119z"/>
			</g>
			<g>
				<path style="fill:#96C6C2;" d="M558.468,152.501c-0.007-0.003-0.014-0.006-0.021-0.008L457.24,111.119
					c-0.171-0.07-0.302-0.215-0.353-0.393c-0.053-0.178-0.021-0.37,0.085-0.522l33.192-47.184c0.194-0.275,0.57-0.344,0.85-0.147
					c0.275,0.194,0.341,0.574,0.148,0.849L458.41,110.28l100.499,41.084c0.311,0.127,0.46,0.483,0.334,0.795
					C559.118,152.464,558.775,152.613,558.468,152.501z"/>
				<path style="fill:#96C6C2;" d="M507.555,122.253c-0.164-0.06-0.295-0.188-0.358-0.351l-11.208-28.765l-26.987,13.468
					c-0.301,0.15-0.668,0.028-0.817-0.273c-0.15-0.301-0.029-0.668,0.274-0.818l27.584-13.767c0.153-0.077,0.359-0.084,0.491-0.023
					c0.159,0.062,0.287,0.188,0.348,0.347l11.191,28.722l29.743-17.363c0.154-0.09,0.341-0.108,0.51-0.048
					c0.203,0.066,0.304,0.19,0.367,0.357l7.706,20.157l34.428-19.309c0.295-0.165,0.666-0.059,0.83,0.234
					c0.164,0.293,0.061,0.665-0.233,0.83l-35.043,19.654c-0.156,0.087-0.31,0.097-0.508,0.041c-0.165-0.061-0.297-0.19-0.359-0.355
					l-7.703-20.145l-29.738,17.361c-0.154,0.09-0.34,0.108-0.508,0.049C507.56,122.255,507.558,122.254,507.555,122.253z"/>
				<path style="fill:#96C6C2;" d="M471.018,106.151c-0.399,1.09-1.606,1.649-2.695,1.25c-1.09-0.399-1.65-1.606-1.251-2.695
					c0.399-1.09,1.606-1.65,2.696-1.251C470.857,103.854,471.417,105.061,471.018,106.151z"/>
				<path style="fill:#96C6C2;" d="M509.624,122.03c-0.399,1.09-1.606,1.65-2.696,1.251c-1.09-0.399-1.649-1.606-1.25-2.696
					c0.399-1.09,1.606-1.649,2.696-1.251C509.464,119.733,510.023,120.94,509.624,122.03z"/>
				<path style="fill:#96C6C2;" d="M498.015,93.081c-0.399,1.09-1.606,1.65-2.696,1.25c-1.09-0.399-1.65-1.606-1.251-2.696
					c0.399-1.09,1.606-1.649,2.696-1.25C497.854,90.785,498.414,91.992,498.015,93.081z"/>
				<path style="fill:#96C6C2;" d="M540.135,105.025c-0.399,1.09-1.606,1.649-2.696,1.251c-1.09-0.399-1.65-1.606-1.251-2.696
					c0.399-1.09,1.606-1.65,2.696-1.251C539.974,102.729,540.534,103.936,540.135,105.025z"/>
				<path style="fill:#96C6C2;" d="M583.263,106.067c-0.399,1.09-1.606,1.65-2.696,1.251c-1.09-0.399-1.649-1.606-1.25-2.696
					c0.399-1.09,1.606-1.649,2.696-1.25C583.102,103.771,583.662,104.978,583.263,106.067z"/>
				<path style="fill:#96C6C2;" d="M548.579,125.19c-0.399,1.09-1.606,1.649-2.696,1.251c-1.09-0.399-1.65-1.606-1.251-2.696
					c0.399-1.09,1.606-1.65,2.696-1.25C548.418,122.894,548.978,124.101,548.579,125.19z"/>
			</g>
			<g>
				<path style="fill:#F7DE76;" d="M498.405,157.982c-2.177-11.492-10.065-21.632-21.78-26.154
					c-4.174-1.611-8.47-2.367-12.697-2.352c-13.985,0.039-27.173,8.54-32.516,22.383c-6.954,18.017,2.013,38.258,20.03,45.212
					c14.923,5.76,31.387,0.588,40.535-11.603c1.901-2.521,3.483-5.334,4.677-8.428C499.088,170.739,499.576,164.158,498.405,157.982
					z M458.165,179.657c-8.394-3.24-12.566-12.678-9.326-21.073c2.423-6.279,8.299-10.192,14.62-10.419
					c2.134-0.078,4.326,0.271,6.441,1.088c5.243,2.024,8.845,6.472,10.017,11.564c0.703,3.055,0.53,6.347-0.686,9.498
					c-0.676,1.752-1.617,3.309-2.769,4.668C472.107,180.138,464.807,182.221,458.165,179.657z"/>
				<path style="fill:#5CAAA0;" d="M498.405,157.982l-18.489,2.835c-1.171-5.091-4.773-9.54-10.017-11.564
					c-2.116-0.817-4.307-1.166-6.441-1.088c0.112-5.302,0.33-13.281,0.47-18.69c4.227-0.015,8.522,0.741,12.697,2.352
					C488.341,136.35,496.228,146.491,498.405,157.982z"/>
				<path style="fill:#F8C05A;" d="M496.656,177.041c-1.194,3.094-2.777,5.907-4.677,8.428l-15.517-10.485
					c1.152-1.359,2.093-2.917,2.769-4.668c1.216-3.151,1.389-6.443,0.686-9.498l18.489-2.835
					C499.576,164.158,499.088,170.739,496.656,177.041z"/>
			</g>
			<g>
				<polygon style="fill:#F8C05A;" points="510.772,166.7 515.701,156.813 552.961,172.084 547.808,182.553 				"/>
				<path style="fill:#96C6C2;" d="M540.313,195.662c-0.008-0.003-0.018-0.007-0.027-0.011l-36.434-15.397
					c-0.311-0.131-0.455-0.489-0.324-0.799c0.13-0.31,0.447-0.48,0.798-0.324l36.434,15.397c0.311,0.131,0.456,0.489,0.324,0.799
					C540.957,195.628,540.617,195.773,540.313,195.662z"/>
				<path style="fill:#96C6C2;" d="M537.399,203.212c-0.008-0.003-0.018-0.007-0.027-0.011l-36.434-15.397
					c-0.311-0.131-0.456-0.489-0.324-0.799c0.13-0.309,0.449-0.486,0.798-0.324l36.434,15.397c0.311,0.131,0.455,0.489,0.324,0.799
					C538.043,203.178,537.703,203.324,537.399,203.212z"/>
				<path style="fill:#96C6C2;" d="M534.484,210.763c-0.008-0.003-0.018-0.007-0.026-0.01l-38.12-16.015
					c-0.311-0.131-0.457-0.488-0.326-0.798c0.13-0.31,0.474-0.46,0.797-0.326l38.12,16.015c0.311,0.131,0.457,0.488,0.326,0.798
					C535.129,210.728,534.788,210.874,534.484,210.763z"/>
				<path style="fill:#96C6C2;" d="M531.57,218.313c-0.008-0.003-0.018-0.007-0.026-0.01l-38.573-16.181
					c-0.311-0.131-0.457-0.488-0.326-0.798c0.129-0.311,0.48-0.466,0.797-0.327l38.573,16.181c0.311,0.13,0.457,0.488,0.326,0.798
					C532.215,218.279,531.874,218.425,531.57,218.313z"/>
			</g>
			<g>
				<path style="fill:#96C6C2;" d="M461.114,213.758l-42.092-15.415c-0.316-0.116-0.479-0.466-0.363-0.782
					c0.116-0.316,0.466-0.479,0.782-0.363l42.092,15.415c0.316,0.116,0.479,0.466,0.363,0.782
					C461.78,213.712,461.43,213.874,461.114,213.758z"/>
				<path style="fill:#96C6C2;" d="M459.08,219.312l-42.092-15.415c-0.316-0.116-0.479-0.466-0.363-0.782
					c0.116-0.316,0.466-0.479,0.782-0.363l42.092,15.415c0.316,0.116,0.479,0.466,0.363,0.782
					C459.746,219.265,459.396,219.428,459.08,219.312z"/>
				<path style="fill:#96C6C2;" d="M457.046,224.866l-42.092-15.415c-0.316-0.116-0.479-0.466-0.363-0.782
					c0.116-0.316,0.466-0.479,0.782-0.363l42.092,15.415c0.316,0.116,0.479,0.466,0.363,0.782
					C457.713,224.819,457.362,224.982,457.046,224.866z"/>
			</g>
			<g>
				<path style="fill:#96C6C2;" d="M523.959,236.773l-42.091-15.414c-0.316-0.116-0.479-0.466-0.363-0.782
					c0.116-0.316,0.466-0.479,0.782-0.363l42.091,15.414c0.316,0.116,0.479,0.466,0.363,0.782
					C524.625,236.726,524.275,236.889,523.959,236.773z"/>
				<path style="fill:#96C6C2;" d="M521.925,242.327l-42.091-15.414c-0.316-0.116-0.479-0.466-0.363-0.782
					c0.116-0.316,0.466-0.479,0.782-0.363l42.091,15.414c0.316,0.116,0.479,0.466,0.363,0.782
					C522.591,242.28,522.241,242.443,521.925,242.327z"/>
				<path style="fill:#96C6C2;" d="M519.891,247.88l-42.091-15.414c-0.316-0.116-0.479-0.466-0.363-0.782
					c0.116-0.316,0.466-0.479,0.782-0.363l42.091,15.414c0.316,0.116,0.479,0.466,0.363,0.782
					C520.558,247.834,520.207,247.996,519.891,247.88z"/>
			</g>
		</g>
		<g>
			<g>
				<path style="fill:#F8C05A;" d="M445.365,253.795c-1.551,8.604-17.708,36.594-57.85,50.469
					c-40.136,13.858-63.486,19.132-72.18,23.207c-8.688,4.086-16.505,7.712-18.468,3.88c-1.963-3.832,2.862-10.397-0.037-33.463
					c-2.811-22.41-11.586-41.417-17.968-61.298l-0.251-0.804l-0.407-1.278c-1.353-4.377-2.133-8.8-2.414-13.187
					c-0.012-0.052-0.007-0.099-0.001-0.145c0.528-4.647,0.002-9.259,0.889-13.947c0.877-4.64,2.334-9.168,4.32-13.452
					c2.408-5.193,6.094-9.486,9.326-14.153c4.546-6.565,9.796-14.226,11.817-22.05l-0.355-0.296c0,0-13.775-5.901-13.792-5.907
					l-4.785-1.861l-0.053-0.017l-10.298-4.006c-0.111-0.045-0.215-0.079-0.291-0.113c-0.239-0.096-0.367-0.147-0.367-0.147
					l-3.212-0.725c-4.033-0.91-6.269-5.238-4.678-9.054c0,0,4.477-10.736,4.488-10.742c0.013-0.048,0.027-0.096,0.04-0.143
					c1.255-4.403,6.579-6.136,10.279-3.44c7.956,5.799,18.754,13.758,17.439,12.122c-1.049-1.318-5.902-7.027-10.522-12.433
					c-2.294-2.684-1.491-6.774,1.616-8.452c0.857-0.463,1.722-0.918,2.594-1.364c3.427-1.756,6.895-3.347,10.392-4.777
					c2.913-1.191,6.235,0.283,7.297,3.246l1.153,3.215l-0.644-6.292c-0.178-1.74,0.879-3.394,2.547-3.92
					c6.122-1.934,12.318-3.407,18.567-4.416c5.136-0.829,4.6,6.624,4.414,9.772c-0.474,8.041-1.592,16.196-1.724,24.244
					l-0.098,6.009c0,0,0.035,0.011,0.11,0.016c0.308,0.032,1.284,0.173,2.759,0.408c2.997,0.475,8.063,1.377,13.824,2.811
					c2.465,0.602,5.041,1.308,7.635,2.106c3.793,1.175,7.605,2.559,11.135,4.189c3.956,1.835,7.555,3.969,10.299,6.453
					c0.059,0.057,0.129,0.109,0.193,0.178c3.622,3.288,7.737,7.794,11.933,12.828c11.085,13.306,22.693,30.278,26.725,38.149
					c5.581,10.895,17.477,31.216,21.509,35.474C442.315,244.94,446.905,245.197,445.365,253.795z"/>
				<g>
					<g>
						<path style="fill:#FFFFFF;" d="M364.96,203.284c-7.14-0.184-14.422,2.336-19.856,6.998
							c-5.204,4.465-10.241,12.845-4.191,18.868c4.994,4.973,13.052,2.221,18.91,0.788c3.502-0.857,7.598-2.177,11.133-0.796
							c2.868,1.12,4.004,3.679,2.907,6.543c-2.765,7.216-12.741,9.331-19.372,7.008c-1.427-0.5-2.999-0.113-3.697,1.336
							c-0.601,1.246-0.078,3.202,1.336,3.697c7.082,2.48,15.174,1.675,21.305-2.844c5.207-3.838,9.006-11.831,4.301-17.535
							c-5.533-6.707-14.751-3.866-21.872-2.123c-2.905,0.711-6.354,1.801-9.338,0.928c-3.208-0.939-3.218-4.446-1.886-6.971
							c3.779-7.162,13.191-10.558,20.824-10.361c1.513,0.039,2.627-1.647,2.518-3.019
							C367.848,204.161,366.455,203.322,364.96,203.284L364.96,203.284z"/>
						<path style="fill:#FFFFFF;" d="M344.349,201.668c9.266,16.751,17.45,34.077,24.564,51.848c1.326,3.313,6.54,1.379,5.205-1.955
							c-7.295-18.222-15.742-35.946-25.242-53.12C347.149,195.317,342.632,198.563,344.349,201.668L344.349,201.668z"/>
					</g>
				</g>
			</g>
			<path style="fill:#FFFFFF;" d="M334.387,138.067c-3.229,4.229-6.926,7.933-11.322,11.04c-4.395,3.108-8.945,6.111-13.762,8.513
				c-2.564,1.279-5.59,2.59-8.439,2.89c-0.729-1.33-1.086-2.368-2.043-3.545c13.366-4.965,25.291-13.745,34.002-25.033
				C333.026,134.223,333.862,135.829,334.387,138.067z"/>
		</g>
		<g>
			<g>
				<g>
					<g>
						<g>
							<path style="fill:#FFFFFF;" d="M555.386,207.991l25.406,105.277c1.724,7.144-2.215,14.239-8.815,15.832l-155.356,37.491
								c-6.6,1.593-13.341-2.925-15.065-10.069L376.15,251.244L555.386,207.991z"/>
							
								<rect x="375.796" y="229.354" transform="matrix(0.9721 -0.2346 0.2346 0.9721 -42.9626 116.4456)" style="fill:#5CAAA0;" width="184.381" height="18.917"/>
						</g>
						<g>
							<path style="fill:#F8C05A;" d="M528.583,223.859c0.484,2.003-0.622,3.989-2.47,4.435c-1.847,0.446-3.737-0.817-4.221-2.821
								c-0.484-2.004,0.622-3.989,2.469-4.435C526.21,220.593,528.099,221.855,528.583,223.859z"/>
							<path style="fill:#F7DE76;" d="M538.964,221.354c0.484,2.004-0.622,3.989-2.469,4.435s-3.737-0.817-4.221-2.821
								c-0.484-2.004,0.622-3.989,2.469-4.435C536.591,218.088,538.48,219.35,538.964,221.354z"/>
							<path style="fill:#5CAAA0;" d="M549.806,218.738c0.484,2.004-0.622,3.989-2.469,4.435c-1.847,0.446-3.737-0.817-4.22-2.821
								c-0.484-2.004,0.622-3.989,2.47-4.435C547.433,215.471,549.322,216.734,549.806,218.738z"/>
						</g>
					</g>
					<g>
						<path style="fill:#96C6C2;" d="M568.471,320.36l-146.948,35.462c-0.389,0.094-0.782-0.146-0.876-0.535l-18.476-76.562
							c-0.094-0.389,0.146-0.782,0.535-0.876c0.389-0.094,0.782,0.146,0.876,0.535l18.306,75.856l146.242-35.291
							c0.389-0.094,0.782,0.146,0.876,0.535C569.1,319.874,568.86,320.266,568.471,320.36z"/>
					</g>
				</g>
				<path style="fill:#F7DE76;" d="M430.402,343.064c-0.231,0.056-0.482,0.033-0.711-0.084c-0.505-0.259-0.707-0.879-0.446-1.386
					l16.415-32.088c0.237-0.468,0.792-0.679,1.277-0.495l32.47,12.198l22.452-41.868c0.249-0.46,0.796-0.66,1.278-0.474
					l20.983,8.087l20.082-41.238c0.249-0.512,0.866-0.723,1.377-0.475c0.511,0.249,0.724,0.865,0.475,1.377l-20.495,42.088
					c-0.236,0.481-0.801,0.703-1.296,0.51l-21.017-8.1l-22.449,41.862c-0.249,0.458-0.793,0.657-1.269,0.477l-32.452-12.192
					l-15.997,31.27C430.935,342.81,430.684,342.996,430.402,343.064z"/>
				<path style="fill:#F7DE76;" d="M546.668,254.786c-0.059,0.014-0.119,0.023-0.18,0.027c-0.569,0.035-1.056-0.396-1.091-0.964
					l-0.443-7.153l-6.258,4.698c-0.454,0.341-1.1,0.25-1.442-0.205c-0.342-0.455-0.249-1.101,0.204-1.442l7.786-5.845
					c0.299-0.225,0.705-0.27,1.051-0.111c0.342,0.159,0.572,0.493,0.595,0.871l0.562,9.059
					C547.482,254.228,547.143,254.672,546.668,254.786z"/>
			</g>
			<g>
				
					<rect x="552.577" y="292.565" transform="matrix(0.9721 -0.2346 0.2346 0.9721 -54.2077 139.0535)" style="fill:#F7DE76;" width="9.64" height="9.64"/>
				
					<rect x="555.578" y="305.002" transform="matrix(0.9721 -0.2346 0.2346 0.9721 -57.042 140.1062)" style="fill:#F8C05A;" width="9.64" height="9.64"/>
				
					<rect x="549.185" y="278.509" transform="matrix(0.9721 -0.2346 0.2346 0.9721 -51.0051 137.8656)" style="fill:#5CAAA0;" width="9.64" height="9.64"/>
			</g>
		</g>
		<g>
			<path style="fill:#F8C05A;" d="M257.831,172.593c0.013,0.092,0.019,0.196,0.025,0.3c0.133,1.531-0.06,3.559-0.526,5.922
				c-0.019,0.09-0.038,0.179-0.057,0.269c-0.274,1.309-0.627,2.722-1.066,4.211c-0.031,0.082-0.051,0.172-0.082,0.254
				c-0.383,1.294-0.836,2.649-1.352,4.042c-0.022,0.08-0.053,0.162-0.085,0.244c-0.47,1.285-0.988,2.593-1.549,3.934
				c-0.044,0.075-0.066,0.155-0.11,0.229c-0.319,0.77-0.667,1.548-1.025,2.328c-0.053,0.12-0.097,0.237-0.153,0.346
				c-0.185,0.387-0.358,0.78-0.546,1.157c-0.032,0.082-0.076,0.157-0.11,0.23c-0.617,1.292-1.256,2.536-1.909,3.731
				c-0.034,0.072-0.078,0.147-0.122,0.222c-0.687,1.267-1.386,2.485-2.074,3.626c-0.044,0.075-0.091,0.14-0.135,0.215
				c-0.255,0.404-0.5,0.806-0.749,1.188c-0.529,0.814-1.061,1.576-1.571,2.301c-0.057,0.068-0.103,0.132-0.147,0.207
				c-0.204,0.275-0.4,0.537-0.596,0.8c-0.699,0.932-1.392,1.768-2.059,2.501c-0.056,0.068-0.113,0.135-0.172,0.193
				c-1.23,1.334-2.381,2.32-3.391,2.868c-0.094,0.046-0.185,0.101-0.282,0.137c-0.828,0.395-1.55,0.465-2.129,0.193l-3.146-2.262
				l-0.01,0.002l-0.495-0.358l-0.143-0.101l0.012-0.035l0.324-0.666l0.119-0.232l0.376-0.795l1.436-2.985l0.11-0.229l0.407-0.835
				c0.194-1.045,0.448-2.147,0.755-3.327c0.022-0.08,0.043-0.159,0.072-0.251c0.341-1.294,0.766-2.674,1.243-4.098
				c0.031-0.082,0.061-0.174,0.092-0.257c0.915-2.67,2.06-5.515,3.41-8.425c1.847-4.011,3.876-7.647,5.85-10.676
				c1.509-2.295,2.992-4.245,4.372-5.735l1.605-3.314l0.11-0.229l0.068-0.145l0.841-1.731l0.41,0.275
				c0.013,0.007,0.015,0.017,0.028,0.025l3.27,2.251c0,0-0.012,0.035-0.036,0.105C257.404,170.704,257.699,171.516,257.831,172.593z
				"/>
			<g>
				<g>
					<path style="fill:#FFFFFF;" d="M238.268,213.911c-0.094,0.046-0.185,0.101-0.282,0.137l-3.609-2.089l-1.977-1.137l-0.909-0.526
						c-0.028-0.109-0.057-0.218-0.08-0.349l1.108,0.643l2.166,1.257L238.268,213.911z"/>
				</g>
				<g>
					<path style="fill:#FFFFFF;" d="M241.831,210.85c-0.056,0.068-0.113,0.135-0.172,0.193l-3.422-1.979l-0.871-0.504l-3.035-1.751
						l-2.014-1.159l-0.337-0.198l0.135-0.215l0.234,0.13l2.091,1.213l3.11,1.795l0.871,0.504L241.831,210.85z"/>
				</g>
				<g>
					<path style="fill:#FFFFFF;" d="M244.634,207.342c-0.057,0.068-0.103,0.132-0.147,0.207l-3.382-1.947l-0.749-0.44l-4.752-2.744
						l-1.368-0.787l0.122-0.222l1.318,0.758l4.839,2.795l0.736,0.433L244.634,207.342z"/>
				</g>
				<g>
					<path style="fill:#FFFFFF;" d="M247.089,203.638c-0.044,0.075-0.091,0.14-0.135,0.215l-3.359-1.942l-0.694-0.391l-5.982-3.451
						l-0.437-0.257l0.132-0.225l0.397,0.225l6.035,3.49l0.684,0.394L247.089,203.638z"/>
				</g>
				<g>
					<path style="fill:#FFFFFF;" d="M249.285,199.79c-0.034,0.072-0.078,0.147-0.122,0.222l-3.332-1.918l-0.661-0.389l-6.444-3.722
						l0.135-0.215l6.441,3.713l0.659,0.379L249.285,199.79z"/>
				</g>
				<g>
					<path style="fill:#FFFFFF;" d="M251.304,195.829c-0.032,0.082-0.076,0.157-0.11,0.23l-3.319-1.91l-0.649-0.382l-6.244-3.605
						l0.122-0.222l6.234,3.608l0.646,0.372L251.304,195.829z"/>
				</g>
				<g>
					<path style="fill:#FFFFFF;" d="M253.138,191.768c-0.044,0.075-0.066,0.155-0.11,0.229l-3.297-1.905l-0.649-0.382l-5.857-3.378
						l0.135-0.215l5.822,3.365l0.659,0.379L253.138,191.768z"/>
				</g>
				<g>
					<path style="fill:#FFFFFF;" d="M254.772,187.59c-0.022,0.08-0.053,0.162-0.085,0.244l-3.272-1.891l-0.686-0.404l-5.248-3.028
						l0.122-0.222l5.211,3.006l0.686,0.404L254.772,187.59z"/>
				</g>
				<g>
					<path style="fill:#FFFFFF;" d="M256.206,183.294c-0.031,0.082-0.051,0.172-0.082,0.254l-3.262-1.893l-0.734-0.423l-4.402-2.539
						l0.132-0.225l4.342,2.512l0.734,0.423L256.206,183.294z"/>
				</g>
				<g>
					<path style="fill:#FFFFFF;" d="M257.329,178.815c-0.019,0.09-0.038,0.179-0.057,0.269l-3.234-1.868l-0.821-0.475
						c-0.003-0.01-0.003-0.01-0.003-0.01l-3.244-1.866l0.135-0.215l3.16,1.824l0.831,0.472L257.329,178.815z"/>
				</g>
				<g>
					<path style="fill:#FFFFFF;" d="M257.831,172.593c0.013,0.092,0.019,0.196,0.025,0.3l-3.119-1.793l-1.483-0.864l-1.006-0.575
						l-0.786-0.462l-1.405-0.81c0.081-0.053,0.153-0.103,0.235-0.156l1.605,0.927l0.462,0.271l0.644,0.362
						c0,0,0.01-0.003,0.012,0.007l1.707,0.996L257.831,172.593z"/>
				</g>
			</g>
			<path style="fill:#F7DE76;" d="M254.721,170.798c0.003,0.094,0.009,0.198,0.015,0.303c0.066,1.559-0.158,3.552-0.641,5.846
				c-0.019,0.09-0.038,0.179-0.057,0.269c-0.286,1.301-0.651,2.707-1.103,4.189c-0.022,0.079-0.041,0.169-0.072,0.251
				c-0.393,1.297-0.846,2.652-1.362,4.044c-0.032,0.082-0.063,0.164-0.085,0.244c-0.483,1.278-1.01,2.589-1.575,3.92
				c-0.034,0.072-0.066,0.154-0.11,0.229c-0.321,0.76-0.669,1.538-1.027,2.318c-0.239,0.506-0.478,1.012-0.719,1.509
				c-0.032,0.082-0.066,0.154-0.11,0.229c-0.629,1.284-1.259,2.526-1.914,3.712c-0.042,0.085-0.086,0.16-0.13,0.234
				c-0.696,1.27-1.401,2.468-2.101,3.602c-0.044,0.075-0.088,0.15-0.135,0.215c-0.783,1.261-1.57,2.427-2.343,3.484
				c-0.054,0.077-0.101,0.143-0.147,0.207c-0.923,1.255-1.822,2.355-2.683,3.276c-0.066,0.07-0.125,0.128-0.185,0.185
				c-1.301,1.385-2.515,2.334-3.551,2.782c-0.104,0.048-0.21,0.086-0.309,0.112c-0.629,0.227-1.185,0.244-1.654,0.027
				c-0.01,0.003-0.01,0.003-0.022-0.005l-0.495-0.358c-0.01,0.003-0.01,0.003-0.012-0.007c-0.043-0.042-0.075-0.086-0.118-0.128
				c-0.249-0.306-0.446-0.699-0.584-1.192c-0.028-0.109-0.057-0.218-0.08-0.349c-0.872-4.015,1.34-13.06,5.863-22.821
				c4.176-9.058,9.179-16.193,12.782-18.735c0.081-0.053,0.153-0.103,0.235-0.156c1.175-0.77,2.196-1.035,2.976-0.677l0.41,0.275
				c0.013,0.007,0.015,0.017,0.028,0.025C254.3,168.4,254.627,169.415,254.721,170.798z"/>
			<path style="fill:#FFFFFF;" d="M234.684,210.588c-0.471,0.122-0.913,0.111-1.311-0.073c-1.852-0.857-1.468-4.893-0.822-8.127
				c0.868-4.336,2.754-9.822,5.174-15.052c4.604-9.949,11.568-19.761,14.802-18.269l0,0c3.269,1.514,0.324,13.188-4.28,23.137
				c-2.418,5.225-5.383,10.211-8.137,13.682C238.5,207.916,236.406,210.142,234.684,210.588z M251.321,169.47
				c-3.006,0.78-8.716,8.496-13.148,18.073c-2.405,5.196-4.277,10.643-5.137,14.942c-0.853,4.264-0.655,7.028,0.545,7.582
				c1.201,0.555,3.44-1.08,6.143-4.488c2.73-3.441,5.673-8.392,8.076-13.582c4.989-10.782,7.101-21.288,4.52-22.482l0,0
				C252.034,169.384,251.699,169.372,251.321,169.47z"/>
		</g>
		<g>
			<path style="fill:#F8C05A;" d="M621.391,234.894c-0.081,0.045-0.177,0.087-0.272,0.129c-1.386,0.663-3.352,1.197-5.728,1.592
				c-0.091,0.014-0.181,0.027-0.272,0.041c-1.321,0.204-2.768,0.372-4.316,0.486c-0.088-0.001-0.179,0.013-0.267,0.013
				c-1.347,0.097-2.774,0.151-4.259,0.158c-0.082,0.008-0.17,0.007-0.258,0.007c-1.369,0.012-2.775-0.011-4.228-0.065
				c-0.086-0.015-0.168-0.007-0.253-0.022c-0.833-0.027-1.684-0.079-2.54-0.139c-0.131-0.008-0.256-0.008-0.378-0.022
				c-0.427-0.037-0.856-0.06-1.275-0.104c-0.088-0.001-0.174-0.016-0.254-0.022c-1.426-0.122-2.816-0.283-4.164-0.473
				c-0.08-0.007-0.165-0.021-0.251-0.036c-1.428-0.196-2.814-0.422-4.124-0.664c-0.086-0.015-0.163-0.036-0.248-0.05
				c-0.468-0.096-0.931-0.183-1.376-0.283c-0.948-0.209-1.849-0.438-2.707-0.661c-0.083-0.029-0.16-0.05-0.246-0.065
				c-0.329-0.094-0.644-0.185-0.959-0.277c-1.119-0.326-2.145-0.681-3.066-1.046c-0.083-0.029-0.166-0.058-0.241-0.093
				c-1.682-0.681-3.01-1.411-3.878-2.164c-0.076-0.072-0.16-0.138-0.227-0.216c-0.661-0.636-0.982-1.287-0.93-1.925l1.009-3.741
				l-0.006-0.008l0.161-0.589l0.044-0.169l0.037-0.001l0.737,0.069l0.259,0.03l0.877,0.071l3.299,0.293l0.253,0.022l0.925,0.087
				c1.046-0.186,2.167-0.337,3.379-0.465c0.082-0.008,0.164-0.016,0.261-0.021c1.332-0.136,2.772-0.224,4.273-0.28
				c0.088,0.001,0.185-0.005,0.273-0.004c2.821-0.084,5.888-0.015,9.086,0.224c4.405,0.316,8.522,0.935,12.053,1.716
				c2.68,0.604,5.027,1.305,6.907,2.072l3.667,0.335l0.253,0.022l0.159,0.013l1.916,0.178l-0.113,0.48
				c-0.003,0.014-0.011,0.02-0.013,0.034l-0.955,3.853c0,0-0.037,0.001-0.111,0.003C623.008,233.83,622.352,234.392,621.391,234.894
				z"/>
			<g>
				<g>
					<path style="fill:#FFFFFF;" d="M575.83,231.135c-0.076-0.072-0.16-0.138-0.227-0.216l0.684-4.113l0.368-2.25l0.172-1.035
						c0.092-0.065,0.184-0.13,0.299-0.198l-0.212,1.264l-0.414,2.47L575.83,231.135z"/>
				</g>
				<g>
					<path style="fill:#FFFFFF;" d="M579.949,233.392c-0.083-0.029-0.166-0.058-0.241-0.093l0.647-3.899l0.165-0.993l0.57-3.457
						l0.376-2.293l0.067-0.385l0.248,0.051l-0.039,0.265l-0.399,2.385l-0.585,3.543l-0.165,0.993L579.949,233.392z"/>
				</g>
				<g>
					<path style="fill:#FFFFFF;" d="M584.22,234.779c-0.083-0.029-0.16-0.05-0.246-0.065l0.631-3.851l0.148-0.856l0.895-5.414
						l0.255-1.557l0.251,0.036l-0.246,1.5l-0.912,5.514l-0.146,0.842L584.22,234.779z"/>
				</g>
				<g>
					<path style="fill:#FFFFFF;" d="M588.551,235.773c-0.086-0.015-0.163-0.036-0.248-0.05l0.635-3.828l0.122-0.787l1.123-6.814
						l0.087-0.499l0.257,0.045l-0.071,0.451l-1.141,6.877l-0.128,0.779L588.551,235.773z"/>
				</g>
				<g>
					<path style="fill:#FFFFFF;" d="M592.926,236.473c-0.08-0.007-0.165-0.021-0.251-0.036l0.621-3.794l0.131-0.756l1.215-7.342
						l0.248,0.051l-1.206,7.336l-0.123,0.75L592.926,236.473z"/>
				</g>
				<g>
					<path style="fill:#FFFFFF;" d="M597.344,236.968c-0.088-0.001-0.174-0.016-0.254-0.022l0.619-3.779l0.129-0.742l1.175-7.114
						l0.251,0.036l-1.181,7.105l-0.12,0.736L597.344,236.968z"/>
				</g>
				<g>
					<path style="fill:#FFFFFF;" d="M601.791,237.254c-0.086-0.015-0.168-0.007-0.253-0.022l0.622-3.757l0.129-0.742l1.099-6.672
						l0.248,0.05l-1.099,6.635l-0.123,0.75L601.791,237.254z"/>
				</g>
				<g>
					<path style="fill:#FFFFFF;" d="M606.277,237.312c-0.082,0.008-0.17,0.007-0.258,0.007l0.617-3.728l0.136-0.785l0.986-5.979
						l0.251,0.036l-0.978,5.936l-0.136,0.785L606.277,237.312z"/>
				</g>
				<g>
					<path style="fill:#FFFFFF;" d="M610.803,237.142c-0.088-0.001-0.179,0.013-0.267,0.013l0.623-3.72l0.138-0.836l0.826-5.014
						l0.257,0.044l-0.822,4.949l-0.138,0.836L610.803,237.142z"/>
				</g>
				<g>
					<path style="fill:#FFFFFF;" d="M615.391,236.615c-0.091,0.014-0.181,0.027-0.272,0.041l0.61-3.685l0.155-0.936
						c0.008-0.006,0.008-0.006,0.008-0.006l0.604-3.694l0.249,0.05l-0.595,3.6l-0.149,0.944L615.391,236.615z"/>
				</g>
				<g>
					<path style="fill:#FFFFFF;" d="M621.391,234.894c-0.081,0.045-0.177,0.087-0.272,0.129l0.579-3.551l0.286-1.692l0.184-1.144
						l0.156-0.899l0.263-1.6c0.078,0.058,0.15,0.107,0.229,0.165l-0.302,1.828l-0.091,0.528l-0.112,0.73
						c0,0,0.006,0.008-0.002,0.014l-0.331,1.948L621.391,234.894z"/>
				</g>
			</g>
			<path style="fill:#F7DE76;" d="M621.976,231.351c-0.087,0.036-0.183,0.079-0.278,0.121c-1.436,0.611-3.38,1.104-5.697,1.458
				c-0.091,0.014-0.181,0.027-0.272,0.041c-1.319,0.19-2.763,0.344-4.309,0.443c-0.082,0.008-0.173,0.022-0.261,0.021
				c-1.353,0.089-2.78,0.142-4.265,0.149c-0.088-0.001-0.176-0.001-0.258,0.007c-1.366-0.002-2.779-0.034-4.223-0.093
				c-0.08-0.007-0.168-0.007-0.253-0.022c-0.825-0.033-1.675-0.085-2.532-0.145c-0.558-0.045-1.116-0.091-1.665-0.142
				c-0.088,0-0.168-0.007-0.253-0.022c-1.424-0.137-2.808-0.289-4.148-0.484c-0.094-0.009-0.18-0.024-0.265-0.039
				c-1.434-0.205-2.803-0.442-4.111-0.698c-0.086-0.015-0.171-0.03-0.248-0.05c-1.456-0.289-2.825-0.615-4.086-0.966
				c-0.091-0.023-0.169-0.044-0.246-0.065c-1.499-0.422-2.846-0.876-4.011-1.357c-0.089-0.038-0.164-0.073-0.239-0.108
				c-1.754-0.73-3.07-1.532-3.855-2.344c-0.082-0.08-0.155-0.166-0.214-0.25c-0.433-0.509-0.645-1.023-0.608-1.538
				c-0.006-0.008-0.006-0.008-0.003-0.023l0.161-0.589c-0.006-0.008-0.006-0.008,0.002-0.014c0.024-0.055,0.054-0.101,0.078-0.155
				c0.199-0.34,0.497-0.663,0.91-0.966c0.092-0.065,0.184-0.13,0.299-0.198c3.451-2.23,12.695-3.345,23.424-2.549
				c9.948,0.719,18.388,2.888,22.036,5.365c0.078,0.058,0.15,0.107,0.229,0.165c1.135,0.829,1.742,1.691,1.681,2.547l-0.113,0.48
				c-0.003,0.014-0.011,0.02-0.013,0.034C624.071,230.113,623.236,230.776,621.976,231.351z"/>
			<path style="fill:#FFFFFF;" d="M618.137,231.822c-4.538,1.177-11.706,1.507-18.478,1.008c-5.741-0.423-11.452-1.443-15.67-2.798
				c-3.141-1.009-6.855-2.639-6.705-4.675c0.149-2.034,4.061-3.096,7.316-3.63c4.365-0.715,10.163-0.882,15.91-0.459
				c5.749,0.424,11.449,1.434,15.638,2.771c3.127,0.998,6.824,2.615,6.673,4.649l0,0
				C622.722,230.055,620.926,231.098,618.137,231.822z M582.037,222.76c-2.666,0.692-4.185,1.615-4.26,2.633
				c-0.097,1.319,2.223,2.839,6.364,4.17c4.182,1.343,9.852,2.355,15.556,2.775c11.847,0.873,22.425-0.848,22.635-3.686
				c0.096-1.317-2.211-2.827-6.331-4.143c-4.154-1.326-9.812-2.328-15.524-2.749c-5.71-0.421-11.467-0.256-15.794,0.453
				C583.706,222.373,582.821,222.557,582.037,222.76z"/>
		</g>
	</g>
	<path style="fill:#F8C05A;" d="M696.101,20.223L696.101,20.223c4.936-1.19,9.902,1.845,11.093,6.781l51.766,214.565
		c1.191,4.936-1.845,9.902-6.78,11.093l0,0c-4.935,1.191-9.902-1.845-11.093-6.78L689.32,31.316
		C688.129,26.38,691.165,21.414,696.101,20.223z"/>
	<path style="fill:#F7DE76;" d="M750.994,99.262L750.994,99.262c4.936-1.19,9.902,1.845,11.093,6.781l51.767,214.565
		c1.191,4.936-1.845,9.902-6.78,11.093l0,0c-4.936,1.191-9.902-1.845-11.093-6.78l-51.767-214.566
		C743.022,105.419,746.058,100.452,750.994,99.262z"/>
</g>
<g id="TEXTS">
	<g>
		<g>
			<g>
				
					<text transform="matrix(1 0 0 1 970.2581 155.3704)" style="fill:#1E214E; font-family:'Montserrat-SemiBold'; font-size:100px; letter-spacing:2;">Financial</text>
			</g>
		</g>
	</g>
	<g>
		<g>
			<g>
				<text transform="matrix(1 0 0 1 986.3926 275.8176)" style="fill:#1E214E; font-family:'Montserrat-Black'; font-size:115px;">EXPERT</text>
			</g>
		</g>
	</g>
	<g>
		<text transform="matrix(1 0 0 1 85.9622 83.7321)"><tspan x="0" y="0" style="fill:#FFFFFF; font-family:'Montserrat-Regular'; font-size:34.0363px;">YOUR</tspan><tspan x="82.196" y="0" style="fill:#FFFFFF; font-family:'Montserrat-Bold'; font-size:34.0363px;">LOGO</tspan></text>
	</g>
	<g>
		<rect x="1134.036" y="301.823" style="fill:none;" width="273.656" height="54.019"/>
		
			<text transform="matrix(1 0 0 1 1217.7035 323.1229)" style="fill:#5CAAA0; font-family:'Montserrat-SemiBoldItalic'; font-size:30px; letter-spacing:1;">#financegoals</text>
	</g>
</g>
</svg>
