<svg width="248" height="293" viewBox="0 0 248 293" fill="none" xmlns="http://www.w3.org/2000/svg">
<g clip-path="url(#clip0_2_772)">
<path opacity="0.2" d="M111.548 278.086C173.154 278.086 223.096 228.111 223.096 166.463C223.096 104.816 173.154 54.8407 111.548 54.8407C49.9417 54.8407 0 104.816 0 166.463C0 228.111 49.9417 278.086 111.548 278.086Z" fill="#F8A435"/>
<path d="M8.69118 260.084C3.91951 249.793 1.44525 238.585 1.44047 227.24C1.4357 215.895 3.90051 204.685 8.66351 194.39C13.4265 184.094 20.3734 174.961 29.0211 167.624C37.6687 160.287 47.8097 154.923 58.7386 151.905L65.3761 175.917C57.9311 177.97 51.0226 181.622 45.131 186.618C39.2393 191.614 34.5061 197.835 31.2605 204.847C28.0148 211.859 26.3347 219.495 26.3369 227.223C26.3392 234.95 28.0238 242.585 31.2735 249.595L8.69118 260.084Z" fill="#F8A435"/>
<path d="M9.99354 293C8.6146 293.001 7.2623 292.62 6.08647 291.899C4.91063 291.178 3.95717 290.146 3.33173 288.916C1.58422 285.482 0.529759 281.737 0.228558 277.895C-0.0726426 274.053 0.385313 270.19 1.57628 266.525C3.98154 259.124 9.22649 252.982 16.1573 249.45C19.5891 247.701 23.3315 246.646 27.1708 246.345C31.0101 246.043 34.8711 246.502 38.5334 247.693C45.9298 250.1 52.0678 255.349 55.597 262.284C56.0508 263.16 56.327 264.116 56.4096 265.099C56.4922 266.082 56.3796 267.071 56.0783 268.01C55.777 268.95 55.2929 269.82 54.654 270.571C54.0151 271.322 53.234 271.939 52.3557 272.386C51.4774 272.834 50.5193 273.103 49.5365 273.178C48.5538 273.253 47.5659 273.133 46.6297 272.825C45.6936 272.516 44.8277 272.025 44.0821 271.38C43.3364 270.736 42.7256 269.949 42.285 269.067C41.4302 267.378 40.2509 265.874 38.8146 264.642C37.3782 263.409 35.7131 262.473 33.9144 261.885C32.1158 261.297 30.219 261.071 28.3326 261.218C26.4463 261.365 24.6075 261.883 22.9214 262.742C21.2354 263.601 19.7352 264.784 18.5069 266.224C17.2785 267.664 16.3461 269.333 15.763 271.134C15.1799 272.935 14.9575 274.834 15.1086 276.721C15.2598 278.608 15.7814 280.447 16.6438 282.132C17.2229 283.272 17.5006 284.54 17.4502 285.817C17.3999 287.095 17.0232 288.337 16.3562 289.427C15.6892 290.517 14.7541 291.418 13.6402 292.043C12.5263 292.669 11.2708 292.998 9.99354 293V293Z" fill="#474646"/>
<path d="M203.044 165.716C192.552 174.683 179.858 180.682 166.273 183.095L161.89 158.569C173.968 156.39 184.922 150.098 192.892 140.759C200.862 131.42 205.359 119.609 205.618 107.331L230.509 107.85C230.123 127.859 222.045 146.95 207.953 161.152C206.373 162.75 204.736 164.271 203.044 165.716Z" fill="#F8A435"/>
<path d="M237.665 107.138C233.429 110.74 228.256 113.062 222.751 113.835C217.246 114.608 211.635 113.799 206.571 111.503C201.508 109.207 197.201 105.519 194.152 100.867C191.104 96.2152 189.439 90.7923 189.352 85.2302C189.333 83.2555 190.096 81.3535 191.473 79.9395C192.851 78.5255 194.732 77.7146 196.705 77.6838C198.678 77.6531 200.583 78.405 202.004 79.7753C203.426 81.1456 204.247 83.023 204.289 84.9974C204.348 88.8152 205.921 92.4531 208.661 95.1107C211.4 97.7683 215.083 99.228 218.898 99.1687C222.713 99.1094 226.349 97.5358 229.005 94.7943C231.661 92.0527 233.119 88.3677 233.06 84.5499C233.029 82.5678 233.786 80.6548 235.165 79.2315C236.544 77.8082 238.431 76.9913 240.412 76.9604C242.393 76.9296 244.304 77.6874 245.727 79.0671C247.149 80.4468 247.966 82.3354 247.996 84.3174C248.067 88.1721 247.372 92.0024 245.953 95.5867C244.534 99.171 242.419 102.438 239.73 105.199C239.069 105.882 238.381 106.528 237.665 107.138Z" fill="#474646"/>
<path d="M184.39 0.569943L177.615 20.2313C177.572 20.3566 177.559 20.4903 177.577 20.6216C177.595 20.7529 177.643 20.8781 177.719 20.9871C177.794 21.0962 177.894 21.186 178.01 21.2493C178.126 21.3127 178.256 21.3477 178.388 21.3517L182.959 21.4882C183.093 21.4922 183.224 21.5281 183.342 21.593C183.459 21.6578 183.56 21.7497 183.635 21.861C183.71 21.9724 183.757 22.1 183.773 22.2333C183.789 22.3666 183.773 22.5018 183.726 22.6276L176.186 42.9404C176.115 43.1305 176.116 43.3395 176.186 43.5294C176.257 43.7193 176.394 43.8775 176.571 43.9751C176.749 44.0727 176.955 44.1032 177.153 44.0611C177.352 44.019 177.528 43.907 177.651 43.7457L195.404 20.3314C195.482 20.2276 195.536 20.1071 195.56 19.9792C195.585 19.8513 195.579 19.7195 195.545 19.594C195.51 19.4686 195.446 19.3528 195.36 19.2559C195.273 19.159 195.165 19.0834 195.044 19.0352L189.726 16.9122C189.622 16.8707 189.528 16.8089 189.448 16.7304C189.368 16.652 189.304 16.5584 189.261 16.4551C189.218 16.3519 189.195 16.241 189.195 16.129C189.195 16.0169 189.217 15.906 189.26 15.8025L195.222 1.46951C195.275 1.34318 195.296 1.206 195.284 1.06972C195.272 0.933446 195.227 0.802156 195.152 0.687125C195.078 0.572095 194.978 0.47676 194.859 0.409307C194.74 0.341854 194.606 0.304299 194.47 0.299867L185.216 1.25673e-05C185.035 -0.00581453 184.858 0.0463895 184.709 0.148964C184.561 0.251538 184.449 0.399082 184.39 0.569943Z" fill="#F8A435"/>
<path d="M11.3422 90.8042L19.2365 106.168C19.2866 106.265 19.3131 106.374 19.3137 106.484C19.3144 106.594 19.2892 106.703 19.2402 106.801C19.1912 106.9 19.1198 106.985 19.0318 107.051C18.9437 107.117 18.8414 107.161 18.7331 107.18L14.9913 107.833C14.8816 107.853 14.778 107.898 14.6892 107.965C14.6003 108.032 14.5287 108.12 14.4802 108.22C14.4318 108.321 14.4079 108.431 14.4105 108.543C14.4132 108.654 14.4422 108.763 14.4954 108.861L23.0969 124.669C23.1757 124.817 23.1992 124.988 23.163 125.152C23.1268 125.316 23.0333 125.461 22.8995 125.562C22.7656 125.663 22.6001 125.712 22.4329 125.702C22.2657 125.691 22.1077 125.621 21.9875 125.505L4.62334 108.355C4.54663 108.279 4.48847 108.187 4.45337 108.084C4.41828 107.982 4.4072 107.873 4.42099 107.766C4.43479 107.659 4.47308 107.556 4.5329 107.466C4.59273 107.376 4.67247 107.302 4.76593 107.247L8.88668 104.873C8.96718 104.826 9.03765 104.764 9.094 104.69C9.15035 104.616 9.19146 104.531 9.21495 104.441C9.23844 104.351 9.24384 104.258 9.23084 104.165C9.21784 104.073 9.1867 103.985 9.13922 103.905L2.54271 92.8263C2.48496 92.7286 2.45168 92.6184 2.44572 92.5051C2.43976 92.3918 2.46129 92.2787 2.50848 92.1756C2.55567 92.0724 2.62711 91.9822 2.7167 91.9126C2.8063 91.8431 2.91138 91.7962 3.02299 91.7761L10.5962 90.4349C10.7436 90.4089 10.8955 90.4307 11.0297 90.4971C11.1639 90.5635 11.2734 90.6711 11.3422 90.8042Z" fill="#474646"/>
<path d="M42.0205 153.213L58.5254 246.621C60.6589 258.696 66.9742 269.633 76.3631 277.513C85.7519 285.393 97.6142 289.712 109.868 289.712C121.815 289.712 133.4 285.607 142.684 278.083C151.968 270.56 158.388 260.073 160.871 248.38L181.076 153.212L42.0205 153.213Z" fill="#F8A435"/>
<path d="M111.548 173.783C149.947 173.783 181.075 164.574 181.075 153.213C181.075 141.853 149.947 132.643 111.548 132.643C73.1489 132.643 42.0205 141.853 42.0205 153.213C42.0205 164.574 73.1489 173.783 111.548 173.783Z" fill="#474646"/>
<path d="M136.287 205.995H87.6219C83.012 205.995 79.275 209.735 79.275 214.348V237.906C79.275 242.519 83.012 246.258 87.6219 246.258H136.287C140.897 246.258 144.634 242.519 144.634 237.906V214.348C144.634 209.735 140.897 205.995 136.287 205.995Z" fill="#474646"/>
<path d="M106.681 226.879H103.788C103.788 223.064 105.515 217.808 113.742 214.427C118.561 212.446 116.966 205.127 116.949 205.053L119.769 204.405C119.86 204.804 121.934 214.19 114.842 217.102C109.427 219.328 106.681 222.619 106.681 226.879Z" fill="#F8A435"/>
<path d="M132.639 247.952C129.825 242.672 128.651 242.777 123.7 243.217C122.088 243.361 120.083 243.539 117.634 243.539C106.675 243.539 105.535 235.557 105.524 235.477L108.394 235.112L106.959 235.294L108.392 235.098C108.425 235.325 109.301 240.644 117.633 240.644C119.953 240.644 121.808 240.479 123.443 240.334C129.013 239.837 131.627 239.9 135.191 246.589L132.639 247.952Z" fill="#F8A435"/>
<path d="M99.1955 228.363C99.0967 228.362 98.9994 228.339 98.9116 228.293L95.7844 226.68C95.6383 226.605 95.5282 226.474 95.4782 226.317C95.4283 226.16 95.4426 225.99 95.5181 225.844C95.5935 225.698 95.724 225.588 95.8806 225.538C96.0373 225.488 96.2075 225.502 96.3536 225.577L99.4807 227.19C99.6045 227.254 99.7033 227.358 99.7612 227.484C99.819 227.611 99.8326 227.754 99.7996 227.889C99.7667 228.024 99.6892 228.145 99.5796 228.23C99.47 228.316 99.3347 228.363 99.1955 228.363Z" fill="white"/>
<path d="M95.4174 234.502C95.2728 234.502 95.1329 234.451 95.0219 234.358C94.9109 234.265 94.8358 234.137 94.8096 233.994C94.7834 233.852 94.8077 233.705 94.8784 233.579C94.9491 233.452 95.0617 233.355 95.1967 233.303L98.4855 232.05C98.6369 232 98.8017 232.011 98.9457 232.079C99.0897 232.148 99.2017 232.269 99.2586 232.418C99.3154 232.567 99.3126 232.733 99.2509 232.88C99.1891 233.027 99.0731 233.144 98.9269 233.208L95.6381 234.461C95.5677 234.488 95.4929 234.502 95.4174 234.502Z" fill="white"/>
<path d="M115.196 231.953C115.04 231.952 114.891 231.894 114.777 231.788C114.662 231.683 114.592 231.539 114.579 231.384C114.566 231.229 114.612 231.075 114.707 230.952C114.802 230.829 114.94 230.746 115.093 230.72L118.565 230.134C118.727 230.107 118.892 230.146 119.026 230.241C119.159 230.336 119.249 230.481 119.277 230.642C119.304 230.804 119.266 230.97 119.172 231.104C119.077 231.238 118.933 231.329 118.772 231.357L115.3 231.944C115.266 231.95 115.231 231.953 115.196 231.953Z" fill="white"/>
<path d="M112.657 227.75C112.546 227.75 112.437 227.72 112.342 227.663C112.246 227.607 112.168 227.526 112.114 227.429C112.061 227.332 112.034 227.222 112.037 227.111C112.041 227 112.074 226.892 112.133 226.798L114.011 223.82C114.054 223.75 114.11 223.688 114.177 223.64C114.243 223.591 114.319 223.556 114.399 223.537C114.479 223.518 114.563 223.515 114.644 223.529C114.725 223.542 114.803 223.572 114.873 223.616C114.943 223.66 115.003 223.718 115.05 223.785C115.097 223.853 115.131 223.929 115.148 224.01C115.166 224.091 115.167 224.174 115.152 224.255C115.136 224.336 115.105 224.413 115.06 224.482L113.181 227.46C113.125 227.549 113.048 227.622 112.956 227.672C112.865 227.723 112.762 227.75 112.657 227.75Z" fill="white"/>
<path d="M148.046 224.712C142.027 224.712 137.006 223.067 133.081 219.801C125.83 213.767 125.052 204.453 125.022 204.06L127.906 203.843L126.464 203.952L127.906 203.841C127.913 203.923 128.643 212.361 134.952 217.594C139.085 221.02 144.72 222.372 151.71 221.61L152.024 224.488C150.703 224.635 149.375 224.71 148.046 224.712Z" fill="#F8A435"/>
<path d="M72.6169 242.705L72.0825 239.86C83.1746 237.773 83.1664 233.155 83.1569 227.809C83.1507 224.208 83.1432 220.127 87.3822 217.741C95.2661 213.302 94.6346 203.243 94.6276 203.141L97.5125 202.924C97.5493 203.411 98.3106 214.91 88.8007 220.263C86.1732 221.743 86.0434 224.092 86.0501 227.803C86.06 233.314 86.072 240.173 72.6169 242.705Z" fill="#F8A435"/>
<path d="M158.117 159.631C158.061 159.631 158.006 159.625 157.952 159.614C154.82 158.984 148.912 156.306 148.964 150.674C148.96 149.57 149.222 148.482 149.729 147.501C150.235 146.521 150.971 145.677 151.873 145.042C150.95 143.329 150.677 141.34 151.104 139.442C152.285 133.283 158.482 132.204 161.595 132.496C161.813 132.517 162.013 132.624 162.152 132.792C162.292 132.961 162.359 133.178 162.338 133.395C162.318 133.613 162.213 133.814 162.045 133.954C161.877 134.095 161.661 134.163 161.443 134.143C161.137 134.115 153.92 133.538 152.728 139.754C152.376 141.254 152.576 142.831 153.291 144.195C156.36 142.714 160.563 142.706 162.492 144.182C162.879 144.447 163.18 144.819 163.358 145.253C163.536 145.686 163.584 146.162 163.496 146.623C163.11 148.637 160.748 149.642 157.756 149.067C155.873 148.723 154.15 147.783 152.841 146.384C152.149 146.867 151.584 147.511 151.197 148.262C150.809 149.012 150.611 149.846 150.618 150.69C150.564 156.357 158.202 157.977 158.278 157.993C158.48 158.033 158.659 158.147 158.781 158.312C158.903 158.477 158.959 158.682 158.939 158.886C158.918 159.09 158.823 159.28 158.671 159.417C158.519 159.555 158.321 159.631 158.116 159.631L158.117 159.631ZM154.332 145.539C155.374 146.512 156.67 147.172 158.07 147.442C160.042 147.819 161.679 147.334 161.875 146.31C161.905 146.151 161.883 145.987 161.814 145.841C161.745 145.694 161.632 145.574 161.49 145.496C160.242 144.541 156.989 144.385 154.332 145.539Z" fill="white"/>
<path d="M87.4615 153.418C87.288 153.418 87.1189 153.363 86.9782 153.262C86.8375 153.16 86.7322 153.017 86.6773 152.852C86.6225 152.688 86.6208 152.51 86.6725 152.344C86.7242 152.178 86.8268 152.033 86.9656 151.929C87.1437 151.795 91.3054 148.584 88.9391 144.688C88.4318 143.779 87.6354 143.066 86.6767 142.662C85.6434 145.019 83.3069 147.087 81.4718 147.241C81.0851 147.293 80.6918 147.23 80.3401 147.061C79.9884 146.892 79.6937 146.624 79.492 146.29C79.2656 145.896 79.1509 145.448 79.16 144.994C79.1692 144.54 79.302 144.097 79.5441 143.713C80.4654 142.029 82.7568 140.77 84.9916 140.72C85.1776 140.717 85.3636 140.72 85.5454 140.732C85.6491 140.17 85.6206 139.591 85.462 139.042C85.3035 138.493 85.0193 137.988 84.632 137.568C81.9132 134.504 77.0038 137.376 76.9551 137.405C76.8618 137.46 76.7585 137.497 76.6511 137.513C76.5436 137.528 76.4342 137.523 76.3289 137.496C76.2237 137.469 76.1247 137.422 76.0377 137.357C75.9507 137.292 75.8773 137.211 75.8218 137.117C75.7662 137.024 75.7296 136.921 75.7139 136.813C75.6983 136.706 75.704 136.596 75.7307 136.491C75.7574 136.386 75.8045 136.287 75.8694 136.199C75.9343 136.112 76.0157 136.039 76.109 135.983C76.357 135.835 82.2525 132.395 85.8678 136.469C86.4284 137.082 86.8377 137.818 87.0631 138.618C87.2885 139.418 87.3236 140.26 87.1656 141.076C88.5101 141.602 89.6343 142.573 90.3518 143.827C92.8731 147.974 89.8873 151.804 87.9575 153.25C87.8149 153.359 87.6407 153.418 87.4615 153.418ZM84.9817 142.378C83.1825 142.436 81.5445 143.502 80.9927 144.51C80.8959 144.642 80.8366 144.797 80.8209 144.96C80.8053 145.122 80.8339 145.286 80.9039 145.434C80.9452 145.504 81.018 145.618 81.3346 145.594C82.3707 145.508 84.0724 144.13 84.9808 142.378H84.9817Z" fill="white"/>
<path d="M177.978 84.5453C182.21 114.489 154.13 133.161 116.979 138.418C79.8284 143.675 47.6767 133.527 43.4452 103.581C39.2137 73.6352 64.5048 35.2306 101.655 29.9739C138.806 24.7171 173.747 54.5992 177.978 84.5453Z" fill="#F8A435"/>
<path d="M142.339 52.5232L104.077 57.9369C92.0834 59.6339 83.7355 70.7387 85.4314 82.7402C87.1272 94.7418 98.2246 103.095 110.218 101.398L148.48 95.9846C160.474 94.2876 168.822 83.1828 167.126 71.1813C165.43 59.1797 154.333 50.8262 142.339 52.5232Z" fill="white"/>
<path d="M98.3644 6.80063L95.3975 7.36966L101.128 37.2858L104.094 36.7168L98.3644 6.80063Z" fill="#F8A435"/>
<path d="M97.305 14.8228C100.354 14.8228 102.826 12.3492 102.826 9.29799C102.826 6.24675 100.354 3.77322 97.305 3.77322C94.2558 3.77322 91.784 6.24675 91.784 9.29799C91.784 12.3492 94.2558 14.8228 97.305 14.8228Z" fill="#474646"/>
<path d="M118.029 87.7531C117.492 87.7533 116.969 87.5781 116.541 87.2543L100.293 75.0257C100.028 74.8315 99.8042 74.5867 99.6346 74.3054C99.465 74.024 99.353 73.7118 99.3049 73.3868C99.2568 73.0617 99.2738 72.7304 99.3547 72.412C99.4356 72.0936 99.5789 71.7944 99.7763 71.5318C99.9737 71.2692 100.221 71.0485 100.504 70.8824C100.788 70.7163 101.101 70.6082 101.427 70.5643C101.752 70.5203 102.083 70.5415 102.4 70.6266C102.717 70.7116 103.014 70.8589 103.274 71.0597L119.521 83.2892C119.938 83.602 120.246 84.0381 120.401 84.5356C120.556 85.0332 120.55 85.567 120.385 86.0614C120.22 86.5557 119.903 86.9854 119.48 87.2896C119.057 87.5938 118.55 87.757 118.029 87.756V87.7531Z" fill="#474646"/>
<path d="M103.794 89.7669C103.333 89.7666 102.882 89.6378 102.49 89.3951C102.098 89.1523 101.782 88.8052 101.576 88.3927C101.371 87.9801 101.284 87.5184 101.326 87.0593C101.368 86.6002 101.537 86.1619 101.814 85.7935L114.036 69.5352C114.434 69.0152 115.02 68.6735 115.668 68.5845C116.317 68.4954 116.974 68.6663 117.497 69.0599C118.019 69.4535 118.366 70.0379 118.46 70.6858C118.554 71.3337 118.388 71.9926 117.999 72.5189L105.778 88.7772C105.546 89.0851 105.247 89.3348 104.902 89.5066C104.558 89.6784 104.178 89.7675 103.794 89.7669Z" fill="#474646"/>
<path d="M153.312 82.7599C152.775 82.76 152.253 82.5849 151.824 82.2611L135.577 70.0311C135.315 69.836 135.094 69.5909 134.926 69.31C134.759 69.029 134.649 68.7178 134.602 68.3941C134.556 68.0704 134.573 67.7406 134.654 67.4238C134.735 67.107 134.878 66.8093 135.075 66.548C135.271 66.2866 135.517 66.0666 135.799 65.9008C136.081 65.7349 136.392 65.6264 136.716 65.5815C137.04 65.5366 137.369 65.5562 137.685 65.6392C138.002 65.7221 138.298 65.8667 138.558 66.0648L154.805 78.2947C155.222 78.6075 155.53 79.0435 155.685 79.5411C155.84 80.0387 155.835 80.5725 155.669 81.0669C155.504 81.5612 155.188 81.9909 154.765 82.2951C154.342 82.5993 153.834 82.7625 153.313 82.7615L153.312 82.7599Z" fill="#474646"/>
<path d="M139.078 84.7745C138.617 84.7742 138.166 84.6455 137.774 84.4028C137.382 84.1601 137.066 83.813 136.86 83.4004C136.655 82.9878 136.568 82.5261 136.61 82.067C136.652 81.6079 136.821 81.1695 137.098 80.8011L149.319 64.5428C149.715 64.0168 150.303 63.6695 150.954 63.5774C151.605 63.4853 152.267 63.6558 152.792 64.0514C153.318 64.4471 153.665 65.0355 153.757 65.6872C153.849 66.3388 153.679 67.0005 153.283 67.5264L141.061 83.7847C140.83 84.0926 140.531 84.3423 140.187 84.5141C139.842 84.6859 139.463 84.7751 139.078 84.7745Z" fill="#474646"/>
<path d="M129.714 108.186C130.46 107.197 131.472 106.441 132.631 106.006C133.791 105.57 135.05 105.474 136.262 105.727C137.474 105.98 138.59 106.572 139.478 107.436C140.367 108.299 140.992 109.397 141.281 110.602C141.333 110.815 141.343 111.036 141.31 111.253C141.277 111.47 141.201 111.679 141.087 111.866C140.972 112.054 140.822 112.217 140.645 112.346C140.468 112.475 140.267 112.568 140.053 112.619C139.84 112.671 139.618 112.679 139.402 112.644C139.185 112.61 138.977 112.532 138.791 112.417C138.604 112.301 138.442 112.15 138.314 111.972C138.186 111.794 138.094 111.592 138.045 111.378C137.947 110.968 137.769 110.582 137.521 110.241C137.274 109.901 136.962 109.612 136.603 109.392C136.245 109.172 135.846 109.024 135.43 108.958C135.015 108.892 134.59 108.909 134.181 109.007C133.772 109.105 133.386 109.283 133.045 109.531C132.704 109.778 132.416 110.09 132.196 110.449C131.976 110.808 131.829 111.207 131.763 111.623C131.697 112.039 131.713 112.464 131.811 112.874C131.911 113.302 131.837 113.752 131.607 114.126C131.376 114.5 131.006 114.768 130.579 114.871C130.151 114.973 129.701 114.902 129.325 114.674C128.95 114.445 128.68 114.077 128.575 113.65C128.373 112.815 128.338 111.949 128.473 111.1C128.608 110.252 128.91 109.439 129.361 108.708C129.47 108.528 129.588 108.354 129.714 108.186Z" fill="#474646"/>
</g>
<defs>
<clipPath id="clip0_2_772">
<rect width="248" height="293" fill="white"/>
</clipPath>
</defs>
</svg>
